<svg xmlns="http://www.w3.org/2000/svg" viewBox="0 0 214.2 361.39"><g id="Layer_2" data-name="Layer 2"><g id="Layer_1-2" data-name="Layer 1"><path d="M68.6,178.91q69.11-69.07,138.19-138.17c8.58-8.58,9.84-21.23,3.09-30.74A23.5,23.5,0,0,0,174,6.94c-11.1,10.9-22,22-33,33Q71.41,109.45,1.85,179A19.62,19.62,0,0,1,0,180.44c.71.76,1.15,1.25,1.61,1.72Q87.4,267.93,173.15,353.73a24.34,24.34,0,0,0,18.66,7.64c11.74-.34,22-10.6,22.33-22.32a24.2,24.2,0,0,0-7.59-18.66q-69-68.92-138-137.9a15.14,15.14,0,0,0-1.94-1.39v-.8A15.14,15.14,0,0,0,68.6,178.91Z"/></g></g></svg>